<?xml version="1.0" encoding="utf-8"?>
<!-- Generator: Adobe Illustrator 15.0.2, SVG Export Plug-In . SVG Version: 6.00 Build 0)  -->
<!DOCTYPE svg PUBLIC "-//W3C//DTD SVG 1.1//EN" "http://www.w3.org/Graphics/SVG/1.1/DTD/svg11.dtd">
<svg version="1.1" id="Layer_1" xmlns="http://www.w3.org/2000/svg" xmlns:xlink="http://www.w3.org/1999/xlink" x="0px" y="0px"
	 width="35px" height="35px" viewBox="0 0 35 35" enable-background="new 0 0 35 35" xml:space="preserve">
<path fill="#FFFFFF" d="M29.576,23.903L23.17,17.5l6.406-6.405c1.565-1.565,1.565-4.102,0-5.669
	c-1.565-1.566-4.106-1.566-5.67-0.002L17.5,11.829l-6.406-6.405c-1.566-1.566-4.104-1.564-5.668,0
	C3.858,6.991,3.858,9.527,5.425,11.09L11.83,17.5l-6.404,6.404c-1.567,1.566-1.567,4.107,0,5.673
	c1.564,1.565,4.103,1.565,5.669-0.002l6.408-6.406l6.404,6.406c1.568,1.565,4.104,1.567,5.672,0
	C31.142,28.011,31.142,25.47,29.576,23.903z"/>
</svg>
