<?xml version="1.0" encoding="utf-8"?>
<!-- Generator: Adobe Illustrator 15.0.2, SVG Export Plug-In . SVG Version: 6.00 Build 0)  -->
<!DOCTYPE svg PUBLIC "-//W3C//DTD SVG 1.1//EN" "http://www.w3.org/Graphics/SVG/1.1/DTD/svg11.dtd">
<svg version="1.1" id="Layer_1" xmlns="http://www.w3.org/2000/svg" xmlns:xlink="http://www.w3.org/1999/xlink" x="0px" y="0px"
	 width="35px" height="35px" viewBox="0 0 35 35" enable-background="new 0 0 35 35" xml:space="preserve">
<path fill="#FFFFFF" d="M19.648,23.535v-3.893h3.893c0.952,0,1.723-0.77,1.724-1.723c-0.001-0.951-0.772-1.723-1.722-1.723h-3.895
	v-3.895c0-0.951-0.771-1.722-1.722-1.722c-0.953,0-1.724,0.771-1.724,1.722v3.895l-3.894-0.001
	c-0.951,0.001-1.724,0.772-1.724,1.724s0.771,1.723,1.724,1.723h3.894v3.893c0,0.953,0.771,1.725,1.724,1.725
	C18.877,25.26,19.648,24.486,19.648,23.535z"/>
</svg>
