<?xml version="1.0" encoding="utf-8"?>
<!-- Generator: Adobe Illustrator 15.0.2, SVG Export Plug-In . SVG Version: 6.00 Build 0)  -->
<!DOCTYPE svg PUBLIC "-//W3C//DTD SVG 1.1//EN" "http://www.w3.org/Graphics/SVG/1.1/DTD/svg11.dtd">
<svg version="1.1" id="Layer_1" xmlns="http://www.w3.org/2000/svg" xmlns:xlink="http://www.w3.org/1999/xlink" x="0px" y="0px"
	 width="130px" height="45px" viewBox="0 0 130 45" enable-background="new 0 0 130 45" xml:space="preserve">
<path fill="#FF531E" d="M103.253,0c-7.57,0-14.393,3.267-19.127,8.466C79.392,3.267,72.569,0,65,0S50.61,3.267,45.875,8.466
	C41.139,3.267,34.318,0,26.749,0H0.876v38.253v0.002c0,3.715,3.006,6.728,6.717,6.745h6.777V25.871
	c0-6.825,5.553-12.378,12.379-12.378c6.824,0,12.379,5.553,12.379,12.378v12.47c0.045,3.682,3.037,6.652,6.727,6.659h6.767V25.871
	c0-6.825,5.555-12.378,12.379-12.378c6.825,0,12.378,5.553,12.378,12.378v12.442c0.032,3.693,3.03,6.68,6.729,6.687h6.765V25.871
	c0-6.825,5.555-12.378,12.381-12.378c6.823,0,12.377,5.553,12.377,12.378v12.472c0.048,3.682,3.037,6.65,6.728,6.657h6.767V25.871
	C129.124,11.605,117.517,0,103.253,0z"/>
</svg>
