<?xml version="1.0" encoding="utf-8"?>
<!-- Generator: Adobe Illustrator 15.0.2, SVG Export Plug-In . SVG Version: 6.00 Build 0)  -->
<!DOCTYPE svg PUBLIC "-//W3C//DTD SVG 1.1//EN" "http://www.w3.org/Graphics/SVG/1.1/DTD/svg11.dtd">
<svg version="1.1" id="Layer_1" xmlns="http://www.w3.org/2000/svg" xmlns:xlink="http://www.w3.org/1999/xlink" x="0px" y="0px"
	 width="500px" height="350px" viewBox="0 0 500 350" enable-background="new 0 0 500 350" xml:space="preserve">
<g>
	<path d="M210.839,219.583v-50.058h14.799v6.257c2.085-4.371,7.746-7.349,14.601-7.349c12.216,0,19.168,7.747,19.168,20.757v30.393
		h-14.799v-28.604c0-5.859-3.278-9.436-9.138-9.436c-5.661,0-9.832,4.072-9.832,9.933v28.107H210.839z"/>
	<path d="M329.267,219.583v-69.226h14.798v69.226H329.267z"/>
	<path d="M306.384,169.525v6.556c-1.49-4.371-7.35-7.449-14.897-7.449c-7.054,0-13.012,2.482-17.778,7.549
		c-4.669,4.965-7.053,11.123-7.053,18.373c0,7.151,2.384,13.21,7.053,18.077c4.767,4.865,10.725,7.249,17.778,7.249
		c7.25,0,13.209-2.482,15.295-6.059v11.255c0,4.688-3.815,8.502-8.502,8.502c-4.688,0-8.502-3.814-8.502-8.502h-14.402
		c0,12.629,10.276,22.902,22.904,22.902c12.629,0,22.903-10.273,22.903-22.902v-55.551H306.384z M303.404,203.294
		c-2.483,2.384-5.562,3.575-9.236,3.575c-3.577,0-6.555-1.191-9.037-3.575c-2.484-2.383-3.677-5.264-3.677-8.74
		c0-3.476,1.192-6.455,3.677-8.84c2.482-2.482,5.46-3.674,9.037-3.674c3.674,0,6.753,1.191,9.236,3.674
		c2.582,2.385,3.873,5.364,3.873,8.84C307.277,198.03,305.986,200.911,303.404,203.294z"/>
	<polygon points="131.403,155.1 154.486,140.672 131.403,126.246 	"/>
	<path d="M187.758,169.525v28.604c0,6.357-3.675,9.236-9.138,9.236s-9.137-2.879-9.137-9.236v-19.23l-14.997-9.373v29.896
		c0,6.952,2.283,12.315,6.852,15.989c4.668,3.675,10.429,5.563,17.282,5.563s12.613-1.889,17.183-5.563
		c4.667-3.674,6.952-9.037,6.952-15.989v-29.896H187.758z"/>
	<path d="M385.552,203.53c-1.656,2.809-4.55,4.582-9.081,4.582c-5.883,0-10.967-3.987-11.266-9.57h34.496
		c0.099-0.299,0.299-2.592,0.299-4.686c0-15.952-9.472-25.423-24.825-25.423c-12.86,0-24.726,10.168-24.726,26.12
		c0,16.649,12.163,26.42,25.821,26.42c9.837,0,16.799-4.401,20.507-10.428L385.552,203.53z M375.374,180.397
		c7.179,0,9.77,4.586,9.97,8.374h-19.84C365.803,185.083,368.994,180.397,375.374,180.397z"/>
	<path d="M316.479,142.729c-0.64-0.501-1.562-0.389-2.062,0.25l-0.029,0.036c-0.479,0.612-1.043,1.269-1.599,1.88
		c-0.562,0.618-1.146,1.214-1.737,1.797c-1.184,1.162-2.438,2.24-3.754,3.163c-1.312,0.917-2.698,1.683-4.083,2.126
		c-1.387,0.444-2.733,0.535-3.913,0.21c-0.592-0.163-1.153-0.427-1.689-0.786l-0.489-0.346c-0.146-0.103-0.29-0.209-0.431-0.318
		c-0.282-0.221-0.556-0.455-0.817-0.701c-1.047-0.993-1.931-2.191-2.658-3.519c-0.275-0.504-0.521-1.029-0.752-1.562
		c0.251-0.43,0.499-0.862,0.742-1.297c0.87-1.56,1.679-3.138,2.459-4.727c1.57-3.173,3.007-6.397,4.31-9.694
		c1.298-3.3,2.474-6.657,3.4-10.172c0.233-0.88,0.441-1.772,0.634-2.683c0.097-0.455,0.186-0.914,0.268-1.381l0.11-0.693
		c0.033-0.25,0.072-0.535,0.097-0.781c0.109-1.004,0.153-2.048,0.07-3.141c-0.081-1.092-0.285-2.242-0.747-3.424
		c-0.465-1.173-1.223-2.412-2.436-3.388c-1.192-0.988-2.849-1.564-4.398-1.555c-1.558-0.009-2.97,0.472-4.116,1.143
		c-1.157,0.673-2.092,1.534-2.838,2.466c-0.752,0.939-1.321,1.919-1.788,2.964c-0.366,0.85-0.716,1.755-1.02,2.635
		c-0.613,1.772-1.105,3.559-1.507,5.354c-0.794,3.589-1.26,7.214-1.377,10.862c-0.114,3.644,0.083,7.314,0.738,10.963
		c0.421,2.277,1.021,4.56,1.911,6.77c-0.112,0.174-0.226,0.354-0.342,0.521c-0.222,0.315-0.446,0.617-0.663,0.874
		c-0.075,0.09-0.24,0.27-0.371,0.413l-0.417,0.443c-0.558,0.589-1.134,1.144-1.728,1.647c-0.593,0.502-1.199,0.959-1.805,1.325
		c-0.602,0.368-1.211,0.632-1.737,0.748c-0.534,0.118-0.934,0.087-1.286-0.044c-0.354-0.131-0.734-0.409-1.115-0.861
		c-0.764-0.911-1.363-2.344-1.806-3.83c-0.449-1.5-0.744-3.11-0.962-4.742c-0.224-1.634-0.354-3.3-0.426-4.976
		c-0.081-1.676-0.078-3.364-0.039-5.05c0.017-0.735,0.046-1.469,0.08-2.203c0.074-0.903,0.142-1.811,0.194-2.728l-0.002-0.001
		c0.002-0.023,0.005-0.05,0.008-0.074c0.155-1.617-0.988-3.093-2.614-3.324c-1.671-0.237-3.217,0.925-3.454,2.597l-0.054,0.375
		c-0.021,0.227-0.043,0.457-0.066,0.688c-0.403-0.295-0.903-0.464-1.443-0.445c-7.205,0.245-12.747,5.127-15.858,10.674
		c-0.002,0.001,0,0,0,0c-0.357,0.543-0.791,1.163-1.195,1.718c-0.403,0.563-0.818,1.121-1.242,1.668
		c-0.85,1.097-1.737,2.158-2.659,3.173c-1.824,2.039-3.812,3.916-5.941,5.336c-1.063,0.704-2.155,1.297-3.239,1.69
		c-1.084,0.394-2.149,0.579-3.133,0.521c-0.989-0.047-1.913-0.328-2.811-0.832c-0.447-0.255-0.886-0.559-1.312-0.916
		c-0.208-0.17-0.435-0.38-0.616-0.554l-0.192-0.188l-0.137-0.141c-0.084-0.084-0.192-0.204-0.285-0.304
		c-0.04-0.042-0.073-0.087-0.11-0.131c1.116-0.916,2.212-1.855,3.295-2.81c1.106-0.966,2.196-1.952,3.27-2.963
		c2.145-2.033,4.23-4.109,6.202-6.52c0.492-0.611,0.979-1.243,1.451-1.96c0.234-0.361,0.467-0.745,0.695-1.183
		c0.225-0.449,0.457-0.922,0.646-1.654c0.09-0.373,0.179-0.819,0.146-1.464c-0.027-0.342-0.077-0.705-0.24-1.147
		c-0.035-0.1-0.086-0.216-0.14-0.325c-0.057-0.119-0.09-0.192-0.2-0.369c-0.099-0.153-0.206-0.299-0.322-0.439l-0.043-0.053
		c0.12,0.128-0.19-0.206-0.17-0.182l-0.03-0.031l-0.061-0.061l-0.12-0.122l-0.249-0.241c-0.165-0.161-0.34-0.315-0.518-0.468
		c-0.71-0.613-1.519-1.166-2.409-1.609c-1.773-0.904-3.902-1.315-5.899-1.13c-2.009,0.167-3.845,0.875-5.42,1.799
		c-3.156,1.882-5.432,4.618-6.96,7.69c-1.528,3.069-2.267,6.61-1.849,10.173c0.194,1.717,0.691,3.416,1.446,4.978
		c-0.748,0.583-1.505,1.147-2.276,1.669c-1.122,0.768-2.279,1.497-3.38,2.022c-0.532,0.25-1.108,0.449-1.383,0.477
		c-0.023,0.002-0.037,0.003-0.051,0.004l-0.021-0.001l-0.066-0.002c-0.038-0.001-0.104-0.002-0.119-0.004l-0.045-0.005l-0.134-0.016
		c-0.189-0.027-0.363-0.074-0.524-0.14c-0.322-0.13-0.616-0.334-0.915-0.642c-0.298-0.306-0.573-0.722-0.821-1.201
		c-0.501-0.963-0.849-2.168-1.093-3.423c-0.456-2.533-0.542-5.278-0.401-8.01c0.058-1.371,0.205-2.745,0.368-4.114
		c0.093-0.684,0.196-1.367,0.308-2.045c0.056-0.339,0.123-0.676,0.188-1.01c0.063-0.327,0.136-0.686,0.209-0.959v-0.001l0.015-0.143
		c0.12-1.39-0.548-2.791-1.832-3.539c-1.774-1.034-4.051-0.434-5.086,1.34c-0.906,1.554-1.909,3.175-2.91,4.73
		c-1.01,1.565-2.046,3.106-3.118,4.598c-1.071,1.492-2.178,2.941-3.324,4.262c-0.573,0.656-1.157,1.284-1.732,1.825
		c-0.208,0.196-0.422,0.386-0.628,0.555c-0.192-0.701-0.346-1.509-0.466-2.338c-0.124-0.858-0.22-1.748-0.294-2.649
		c-0.285-3.603-0.3-7.409-0.171-11.071v-0.001v-0.025c0.047-0.876-0.283-1.767-0.978-2.409c-1.242-1.15-3.182-1.075-4.331,0.167
		c-1.852,2-3.493,4.125-5,6.313c-1.505,2.19-2.872,4.445-4.142,6.741c-0.763,1.381-1.483,2.778-2.177,4.186
		c-0.074-1.273-0.116-2.551-0.126-3.833c-0.037-4.88,0.385-9.788,1.216-14.639l0.002-0.011c0.189-1.124-0.526-2.215-1.651-2.477
		c-1.169-0.271-2.337,0.457-2.608,1.624c-1.172,5.033-1.925,10.179-2.195,15.382c-0.134,2.601-0.147,5.215-0.019,7.841
		c0.067,1.312,0.168,2.626,0.315,3.947c0.074,0.662,0.159,1.322,0.261,1.99c0.052,0.334,0.104,0.669,0.166,1.008l0.096,0.516
		c0.038,0.186,0.064,0.327,0.124,0.577c0.226,0.916,0.877,1.734,1.821,2.115c1.556,0.627,3.325-0.125,3.952-1.683l0.086-0.209l0,0
		c0.183-0.515,0.41-1.115,0.629-1.675c0.223-0.57,0.453-1.14,0.688-1.708c0.471-1.137,0.964-2.269,1.476-3.39
		c1.026-2.243,2.127-4.448,3.313-6.597c0.861-1.56,1.769-3.087,2.725-4.573c0.016,0.771,0.041,1.543,0.081,2.323
		c0.053,1.007,0.131,2.024,0.251,3.062c0.124,1.041,0.281,2.098,0.56,3.234c0.144,0.571,0.312,1.16,0.575,1.807
		c0.271,0.646,0.589,1.363,1.334,2.211c0.191,0.212,0.415,0.43,0.688,0.641c0.137,0.107,0.285,0.21,0.446,0.309
		c0.08,0.05,0.167,0.1,0.253,0.146c0.034,0.021,0.094,0.051,0.159,0.082l0.19,0.087l0.167,0.07l0.183,0.067l0.134,0.042
		c0.18,0.059,0.359,0.1,0.538,0.137c0.357,0.07,0.699,0.093,1.021,0.092c1.294-0.029,2.141-0.396,2.839-0.719
		c0.695-0.34,1.244-0.703,1.747-1.068c0.499-0.365,0.946-0.735,1.368-1.107c0.84-0.746,1.582-1.502,2.288-2.266
		c1.406-1.53,2.665-3.09,3.873-4.671c0.111-0.146,0.22-0.292,0.33-0.44c0.074,0.649,0.153,1.299,0.24,1.952
		c0.209,1.516,0.49,3.04,0.91,4.577c0.41,1.538,0.948,3.097,1.841,4.651c0.453,0.773,1.017,1.542,1.743,2.245
		c0.727,0.697,1.651,1.311,2.685,1.667c0.513,0.18,1.045,0.294,1.567,0.357c0.136,0.012,0.248,0.026,0.404,0.034l0.223,0.011
		l0.149,0.003h0.204l0.262-0.01c0.166-0.013,0.321-0.031,0.469-0.053c1.149-0.2,1.915-0.562,2.681-0.915
		c1.494-0.717,2.769-1.536,4.019-2.383c0.771-0.533,1.523-1.077,2.269-1.626c0.17,0.188,0.343,0.373,0.52,0.554
		c0.157,0.155,0.296,0.297,0.472,0.46l0.253,0.234l0.201,0.178c0.351,0.309,0.669,0.569,1.028,0.837
		c0.704,0.533,1.474,1.015,2.3,1.426c1.648,0.826,3.574,1.307,5.462,1.285c1.895-0.013,3.684-0.49,5.259-1.174
		c1.58-0.688,2.976-1.578,4.232-2.562c1.953-1.53,3.62-3.25,5.128-5.055c0.181,1.699,0.725,3.471,1.81,5.042
		c1.214,1.802,3.193,3.204,5.348,3.737c2.159,0.559,4.375,0.293,6.24-0.417c1.882-0.708,3.454-1.832,4.746-3.096
		c1.295-1.267,2.332-2.679,3.193-4.135c0.502-0.851,0.936-1.72,1.328-2.597c0.103,0.357,0.209,0.715,0.324,1.072
		c0.303,0.904,0.654,1.811,1.104,2.716c0.45,0.905,1.002,1.809,1.754,2.679c0.746,0.857,1.77,1.693,3.059,2.142
		c1.283,0.461,2.69,0.435,3.838,0.144c1.165-0.285,2.139-0.776,3.019-1.302c0.877-0.532,1.657-1.129,2.385-1.749
		c0.726-0.621,1.402-1.266,2.051-1.925l0.479-0.498c0.133-0.142,0.247-0.26,0.396-0.428c0.954,1.448,2.11,2.808,3.49,3.955
		c0.389,0.325,0.794,0.632,1.215,0.919c0.21,0.145,0.423,0.283,0.641,0.417l0.597,0.368c0.939,0.551,1.993,0.976,3.09,1.203
		c1.098,0.229,2.225,0.259,3.292,0.125c1.068-0.137,2.076-0.426,3.012-0.799c1.876-0.754,3.478-1.823,4.928-2.991
		c1.449-1.172,2.747-2.461,3.948-3.814c0.603-0.675,1.169-1.375,1.72-2.088c0.553-0.723,1.065-1.426,1.592-2.224
		C317.212,144.06,317.083,143.202,316.479,142.729z M213.606,152.328c-0.025,0-0.001,0,0.019,0c-0.003,0-0.009,0.001-0.011,0.001
		C213.608,152.329,213.608,152.326,213.606,152.328z M227.062,135.961c0.519-1.032,1.174-1.995,1.919-2.847
		c0.74-0.854,1.589-1.589,2.477-2.128c0.886-0.545,1.811-0.866,2.667-0.97c0.862-0.102,1.669,0.018,2.473,0.385
		c0.216,0.101,0.434,0.218,0.649,0.351c-0.006,0.009-0.009,0.017-0.014,0.024c-0.287,0.501-0.637,1.039-1.014,1.573
		c-1.524,2.151-3.375,4.279-5.271,6.327c-1.616,1.741-3.306,3.427-5.053,5.048c-0.087-0.405-0.157-0.815-0.192-1.233
		C225.51,140.326,226.037,138.027,227.062,135.961z M266.625,138.868c-0.286,1.333-0.623,2.666-1.029,3.775
		c-0.897,2.421-2.16,4.662-3.765,6.218c-0.799,0.771-1.671,1.36-2.525,1.693c-0.857,0.334-1.683,0.399-2.366,0.229
		c-0.688-0.17-1.253-0.554-1.695-1.161c-0.444-0.605-0.737-1.465-0.803-2.466c-0.071-0.999,0.082-2.12,0.41-3.251
		c0.082-0.283,0.175-0.566,0.277-0.852c0.091-0.253,0.218-0.571,0.34-0.87c0.25-0.606,0.521-1.2,0.812-1.776
		c0.589-1.149,1.249-2.245,1.999-3.254c0.757-1.003,1.592-1.932,2.521-2.742s1.944-1.513,3.032-2.076
		c0.542-0.284,1.105-0.525,1.673-0.734c0.283-0.105,0.571-0.193,0.853-0.274c0.139-0.042,0.279-0.079,0.413-0.111l0.193-0.044
		c0.053-0.012,0.134-0.025,0.129-0.031c0.294-0.011,0.572-0.078,0.828-0.188c-0.158,1.272-0.332,2.541-0.53,3.795
		C267.171,136.143,266.916,137.525,266.625,138.868z M290.266,127.757c0.251-3.278,0.756-6.547,1.576-9.702
		c0.408-1.576,0.892-3.125,1.461-4.609c0.288-0.749,0.586-1.454,0.93-2.186c0.249-0.533,0.568-1.059,0.911-1.466
		c0.344-0.41,0.707-0.742,1.048-0.947c0.342-0.211,0.637-0.28,0.817-0.303c0.186-0.013,0.26,0.002,0.431,0.087
		c0.165,0.087,0.4,0.342,0.61,0.758c0.43,0.845,0.622,2.232,0.556,3.665c-0.006,0.187-0.02,0.333-0.031,0.514l-0.06,0.595
		c-0.043,0.392-0.096,0.788-0.156,1.185c-0.12,0.796-0.279,1.597-0.452,2.403c-0.709,3.225-1.707,6.467-2.824,9.665
		c-1.123,3.2-2.376,6.372-3.757,9.475c-0.224,0.498-0.459,0.99-0.691,1.483c-0.044-0.28-0.09-0.56-0.129-0.839
		C290.067,134.333,290.023,131.033,290.266,127.757z"/>
	<path d="M131.403,197.771c0,4.523-3.68,8.204-8.203,8.204c-4.522,0-8.203-3.681-8.203-8.204v-5.875H100v5.875
		c0,12.793,10.408,23.202,23.2,23.202c12.793,0,23.201-10.409,23.201-23.202v-33.299l-14.998-9.373V197.771z"/>
</g>
</svg>
